Coordinates
version=1
nRows=21
nColumns=12
inDegrees=yes

Units are S.I. units (second, meters, Newtons, ...)
Angles are in degrees

endheader
time	SC_y	SC_z	SC_x	AC_y	AC_z	AC_x	GH_y	GH_z	GH_yy	EL_x	PS_y
       0.0              -48.88           19.9          52.34          57.45         -8.415          10.74          104.3          15.55          74.09          129.1          153.0
 0.0003458              -48.88           19.9          52.34          57.46         -8.414          10.74          104.3          15.55          74.08          129.1          153.0
 0.0006915              -48.87           19.9          52.35          57.46         -8.413          10.74          104.2          15.56          74.07          129.1          153.0
  0.001037              -48.87           19.9          52.35          57.46         -8.412          10.73          104.2          15.58          74.06          129.0          153.0
  0.001383              -48.86          19.91          52.35          57.46         -8.411          10.73          104.2          15.59          74.05          129.0          153.0
  0.001729              -48.86          19.91          52.36          57.46         -8.409          10.73          104.2           15.6          74.04          129.0          152.9
  0.002075              -48.86          19.91          52.37          57.46         -8.408          10.72          104.2          15.61          74.02          129.0          152.9
   0.00242              -48.85          19.91          52.37          57.46         -8.407          10.72          104.2          15.63          74.01          129.0          152.9
  0.002766              -48.85          19.92          52.38          57.47         -8.405          10.72          104.1          15.64          73.99          129.0          152.9
  0.003112              -48.84          19.92          52.38          57.47         -8.403          10.71          104.1          15.66          73.98          129.0          152.9
  0.003458              -48.84          19.92          52.39          57.47         -8.402          10.71          104.1          15.67          73.96          128.9          152.9
  0.003803              -48.83          19.93           52.4          57.47           -8.4           10.7          104.1          15.69          73.94          128.9          152.8
  0.004149              -48.82          19.93          52.41          57.48         -8.398          10.69          104.0          15.71          73.92          128.9          152.8
  0.004495              -48.82          19.94          52.42          57.48         -8.395          10.69          104.0          15.73          73.89          128.9          152.8
  0.004841              -48.81          19.94          52.43          57.48         -8.393          10.68          104.0          15.76          73.87          128.9          152.8
  0.005187               -48.8          19.95          52.44          57.48          -8.39          10.67          104.0          15.78          73.84          128.8          152.8
  0.005532              -48.79          19.95          52.45          57.49         -8.388          10.67          103.9          15.81          73.81          128.8          152.7
  0.005878              -48.78          19.96          52.46          57.49         -8.385          10.66          103.9          15.84          73.78          128.8          152.7
  0.006224              -48.77          19.97          52.48          57.49         -8.381          10.65          103.8          15.87          73.75          128.8          152.7
   0.00657              -48.76          19.97          52.49           57.5         -8.377          10.64          103.8           15.9          73.71          128.7          152.6
  0.006915              -48.74          19.98          52.51           57.5         -8.373          10.63          103.7          15.94          73.67          128.7          152.6
